<?xml version="1.0" encoding="UTF-8"?>
<svg version="1.1" xmlns="http://www.w3.org/2000/svg" width="256" height="256">
<path d="M0 0 C84.48 0 168.96 0 256 0 C256 84.48 256 168.96 256 256 C171.52 256 87.04 256 0 256 C0 171.52 0 87.04 0 0 Z " fill="#151316" transform="translate(0,0)"/>
<path d="M0 0 C52.8 0 105.6 0 160 0 C160.33 0.66 160.66 1.32 161 2 C159.02 2 157.04 2 155 2 C155.061875 2.969375 155.12375 3.93875 155.1875 4.9375 C155.1875 9.65527115 153.60955397 13.61966135 152 18 C151.49601984 19.54037012 150.99595546 21.08202745 150.5 22.625 C149.20529121 26.522827 147.67514102 30.25087486 146 34 C145.34 34 144.68 34 144 34 C143.67 35.65 143.34 37.3 143 39 C142.34 39 141.68 39 141 39 C140.75636719 39.55945313 140.51273438 40.11890625 140.26171875 40.6953125 C134.7500007 50.76315662 124.3312203 59.24469289 114 64 C113.34 64 112.68 64 112 64 C112 64.66 112 65.32 112 66 C104.63102439 69.06446761 97.98209379 70.69121494 90 71 C90 71.66 90 72.32 90 73 C77.96208372 73.44388856 67.27567216 73.72118072 56 69 C55.19691406 68.67644531 54.39382812 68.35289062 53.56640625 68.01953125 C51.34236604 67.07518142 49.17476703 66.05230663 47 65 C46.17757812 64.63132812 45.35515625 64.26265625 44.5078125 63.8828125 C31.92590594 58.03165231 23.20391984 47.65841465 16 36 C16 35.34 16 34.68 16 34 C14.515 33.505 14.515 33.505 13 33 C11.71875 30.2265625 11.71875 30.2265625 10.5 26.625 C10.28641846 25.9959375 10.07283691 25.366875 9.8527832 24.71875 C4.46368075 8.61460413 4.46368075 8.61460413 5 2 C3.02 2 1.04 2 -1 2 C-0.67 1.34 -0.34 0.68 0 0 Z " fill="#161417" transform="translate(48,130)"/>
<path d="M0 0 C2.890625 2.03125 2.890625 2.03125 5 4 C5 4.66 5 5.32 5 6 C5.56203125 6.2475 6.1240625 6.495 6.703125 6.75 C20.85055703 14.44928274 29.31717213 29.20001436 34.1875 43.9375 C34.44724609 44.68451172 34.70699219 45.43152344 34.97460938 46.20117188 C36.73834235 51.48325589 37.54249554 56.44931341 38 62 C39.32 62.33 40.64 62.66 42 63 C38.71560682 64.09479773 36.30255176 64.12855153 32.84422302 64.13371277 C31.55562378 64.13797775 30.26702454 64.14224274 28.93937683 64.14663696 C27.50833127 64.14628744 26.07728573 64.14582591 24.64624023 64.14526367 C23.14167192 64.14825524 21.63710437 64.15165776 20.13253784 64.15544128 C16.04386453 64.16428374 11.95521213 64.16661944 7.86653018 64.16725707 C4.45669554 64.16820577 1.0468658 64.17188345 -2.36296695 64.17542917 C-10.40368296 64.18357395 -18.44438777 64.1860133 -26.48510742 64.18530273 C-34.79042967 64.18470128 -43.0956871 64.19526642 -51.40099293 64.2110464 C-58.5245957 64.22410077 -65.64817723 64.22948755 -72.77179188 64.22884732 C-77.02963758 64.2285918 -81.28742565 64.23147296 -85.54525948 64.24202538 C-89.54662406 64.25167157 -93.54787547 64.25180964 -97.54924393 64.24450874 C-99.02067288 64.24345869 -100.49210875 64.24585056 -101.96352577 64.2518692 C-103.966072 64.25953226 -105.96865643 64.25377091 -107.97120667 64.24723816 C-109.09374124 64.24778293 -110.21627581 64.24832769 -111.37282658 64.24888897 C-114 64 -114 64 -116 62 C-114.68 62 -113.36 62 -112 62 C-111.814375 60.5459375 -111.814375 60.5459375 -111.625 59.0625 C-110.66630671 52.45816844 -109.25635295 46.15552597 -106.765625 39.953125 C-106.02506368 38.06393795 -105.41593671 36.12484945 -104.8125 34.1875 C-102.68348945 28.45729076 -98.72159961 23.77879106 -95 19 C-94.29746094 18.06542969 -93.59492187 17.13085938 -92.87109375 16.16796875 C-92.25363281 15.45253906 -91.63617188 14.73710938 -91 14 C-90.34 14 -89.68 14 -89 14 C-88.67 13.01 -88.34 12.02 -88 11 C-86.14246693 9.42736464 -84.21418832 7.93721097 -82.25 6.5 C-81.20328125 5.7265625 -80.1565625 4.953125 -79.078125 4.15625 C-74.29159142 0.80324678 -70.8686012 -1.31760451 -65 -2 C-65 -2.66 -65 -3.32 -65 -4 C-41.9656722 -10.55136706 -22.03648968 -10.02718578 0 0 Z " fill="#171516" transform="translate(165,62)"/>
<path d="M0 0 C52.8 0 105.6 0 160 0 C160.33 0.66 160.66 1.32 161 2 C159.02 2 157.04 2 155 2 C155.061875 2.969375 155.12375 3.93875 155.1875 4.9375 C155.1875 9.65527115 153.60955397 13.61966135 152 18 C151.49601984 19.54037012 150.99595546 21.08202745 150.5 22.625 C149.20529121 26.522827 147.67514102 30.25087486 146 34 C145.34 34 144.68 34 144 34 C143.67 35.65 143.34 37.3 143 39 C142.34 39 141.68 39 141 39 C140.75636719 39.55945313 140.51273438 40.11890625 140.26171875 40.6953125 C134.7500007 50.76315662 124.3312203 59.24469289 114 64 C113.34 64 112.68 64 112 64 C112 64.66 112 65.32 112 66 C104.63102439 69.06446761 97.98209379 70.69121494 90 71 C90 71.66 90 72.32 90 73 C77.96208372 73.44388856 67.27567216 73.72118072 56 69 C55.19691406 68.67644531 54.39382812 68.35289062 53.56640625 68.01953125 C51.34236604 67.07518142 49.17476703 66.05230663 47 65 C46.17757812 64.63132812 45.35515625 64.26265625 44.5078125 63.8828125 C31.92590594 58.03165231 23.20391984 47.65841465 16 36 C16 35.34 16 34.68 16 34 C14.515 33.505 14.515 33.505 13 33 C11.71875 30.2265625 11.71875 30.2265625 10.5 26.625 C10.28641846 25.9959375 10.07283691 25.366875 9.8527832 24.71875 C4.46368075 8.61460413 4.46368075 8.61460413 5 2 C3.02 2 1.04 2 -1 2 C-0.67 1.34 -0.34 0.68 0 0 Z M11 2 C11 15.78561138 13.63566515 25.45192465 21.44921875 36.73046875 C23 39 23 39 23.89453125 40.98828125 C25.46658715 43.84908969 27.63717289 45.75956393 30 48 C30.88558594 48.85980469 31.77117187 49.71960938 32.68359375 50.60546875 C33.59238281 51.45753906 34.50117187 52.30960938 35.4375 53.1875 C36.34371094 54.04730469 37.24992187 54.90710938 38.18359375 55.79296875 C41.09796656 58.07676991 43.49456738 58.93576075 47 60 C47.33 60.66 47.66 61.32 48 62 C58.62299732 67.18986129 70.1141984 68.15469897 81.75 68.25 C82.52988281 68.2593457 83.30976563 68.26869141 84.11328125 68.27832031 C91.77792881 68.23617124 98.74580956 66.89326626 105.6875 63.5625 C106.55761719 63.15128906 107.42773438 62.74007812 108.32421875 62.31640625 C109.20722656 61.88199219 110.09023437 61.44757813 111 61 C111.98871094 60.52691406 112.97742188 60.05382812 113.99609375 59.56640625 C125.33929325 53.65142186 135.24076803 44.54615255 141 33 C141 32.34 141 31.68 141 31 C141.66 31 142.32 31 143 31 C144.02181929 28.23561388 145.01710505 25.46572784 146 22.6875 C146.28617188 21.92115234 146.57234375 21.15480469 146.8671875 20.36523438 C149.22927997 13.5882786 149 9.7821315 149 2 C137.12 2 125.24 2 113 2 C112.95875 5.75375 112.9175 9.5075 112.875 13.375 C112.85679199 14.55755371 112.83858398 15.74010742 112.81982422 16.95849609 C112.8148291 17.88742676 112.80983398 18.81635742 112.8046875 19.7734375 C112.79421387 20.72653809 112.78374023 21.67963867 112.77294922 22.66162109 C112.76868133 25.1923213 112.76868133 25.1923213 115 27 C117.58354218 27.16687448 117.58354218 27.16687448 120 27 C120 27.66 120 28.32 120 29 C111.75 29 103.5 29 95 29 C95 28.34 95 27.68 95 27 C95.969375 26.855625 96.93875 26.71125 97.9375 26.5625 C100.86486773 26.32437659 100.86486773 26.32437659 102 25 C102.08713831 23.29227642 102.10700007 21.58101351 102.09765625 19.87109375 C102.09515869 18.93966553 102.09266113 18.0082373 102.09008789 17.04858398 C102.08098389 15.85692627 102.07187988 14.66526855 102.0625 13.4375 C102.041875 9.663125 102.02125 5.88875 102 2 C87.48 2 72.96 2 58 2 C57.95875 5.75375 57.9175 9.5075 57.875 13.375 C57.85679199 14.55755371 57.83858398 15.74010742 57.81982422 16.95849609 C57.8148291 17.88742676 57.80983398 18.81635742 57.8046875 19.7734375 C57.79421387 20.72653809 57.78374023 21.67963867 57.77294922 22.66162109 C57.76868133 25.1923213 57.76868133 25.1923213 60 27 C62.58354218 27.16687448 62.58354218 27.16687448 65 27 C65 27.66 65 28.32 65 29 C56.75 29 48.5 29 40 29 C40 28.34 40 27.68 40 27 C40.969375 26.855625 41.93875 26.71125 42.9375 26.5625 C45.86486773 26.32437659 45.86486773 26.32437659 47 25 C47.08713831 23.29227642 47.10700007 21.58101351 47.09765625 19.87109375 C47.09515869 18.93966553 47.09266113 18.0082373 47.09008789 17.04858398 C47.08098389 15.85692627 47.07187988 14.66526855 47.0625 13.4375 C47.041875 9.663125 47.02125 5.88875 47 2 C35.12 2 23.24 2 11 2 Z " fill="#474242" transform="translate(48,130)"/>
<path d="M0 0 C35.97 0 71.94 0 109 0 C109 5.28 109 10.56 109 16 C108.01 16 107.02 16 106 16 C105.32880451 14.5437455 104.66318193 13.08492133 104 11.625 C103.62875 10.81289062 103.2575 10.00078125 102.875 9.1640625 C102 7 102 7 102 5 C96.72 4.67 91.44 4.34 86 4 C86 11.92 86 19.84 86 28 C83.03 28 80.06 28 77 28 C77 20.08 77 12.16 77 4 C73.349375 4.185625 73.349375 4.185625 69.625 4.375 C68.86010254 4.40899902 68.09520508 4.44299805 67.30712891 4.47802734 C63.20221481 4.62219908 63.20221481 4.62219908 60 7 C59.32348793 9.19704511 59.32348793 9.19704511 58.875 11.625 C58.62363281 12.85089844 58.62363281 12.85089844 58.3671875 14.1015625 C58.18542969 15.04128906 58.18542969 15.04128906 58 16 C55.69 16 53.38 16 51 16 C49.35 12.37 47.7 8.74 46 5 C41.05 4.67 36.1 4.34 31 4 C31 11.92 31 19.84 31 28 C28.03 28 25.06 28 22 28 C22 20.08 22 12.16 22 4 C19.586875 4.103125 17.17375 4.20625 14.6875 4.3125 C13.93170654 4.33739502 13.17591309 4.36229004 12.3972168 4.38793945 C9.562842 4.54394964 7.46285981 4.68130964 5.09375 6.3125 C3.35438537 8.99609115 2.75517713 11.92120091 2 15 C1.34 15 0.68 15 0 15 C0 10.05 0 5.1 0 0 Z " fill="#CB9F3A" transform="translate(74,97)"/>
<path d="M0 0 C2.890625 2.03125 2.890625 2.03125 5 4 C5 4.66 5 5.32 5 6 C5.56203125 6.2475 6.1240625 6.495 6.703125 6.75 C21.3078034 14.6981243 29.53915422 29.61888998 34.16796875 44.8515625 C35.41120804 49.55602668 36.13624693 54.00770268 36.0625 58.875 C36.05347656 59.65617187 36.04445312 60.43734375 36.03515625 61.2421875 C36.01775391 62.11230469 36.01775391 62.11230469 36 63 C35.01 63 34.02 63 33 63 C32.98582031 62.35675781 32.97164062 61.71351562 32.95703125 61.05078125 C32.58209369 53.94723454 30.80638769 48.19878768 28.05859375 41.65234375 C27 39 27 39 27 37 C26.34 37 25.68 37 25 37 C23.50178941 33.62902617 23 31.79557881 23 28 C22.4225 27.814375 21.845 27.62875 21.25 27.4375 C18.53322355 25.70178171 17.73195586 23.71640166 16.24609375 20.9296875 C12.03796896 14.4130303 4.487909 9.9852796 -2 6 C-2.86753906 5.45988281 -3.73507813 4.91976562 -4.62890625 4.36328125 C-5.53511719 3.83089844 -6.44132812 3.29851562 -7.375 2.75 C-8.18710938 2.27046875 -8.99921875 1.7909375 -9.8359375 1.296875 C-18.29745978 -2.1713045 -27.34370505 -2.35831243 -36.375 -2.3125 C-37.46901123 -2.30976074 -38.56302246 -2.30702148 -39.69018555 -2.30419922 C-48.01749638 -2.19643038 -56.55357781 -1.8924502 -64.07421875 2.1015625 C-66 3 -66 3 -70 3 C-70.33 3.99 -70.66 4.98 -71 6 C-72.87200268 6.88494672 -74.74417206 7.76954257 -76.6171875 8.65234375 C-86.67126651 14.33866712 -95.41392876 24.22244506 -98.58984375 35.34765625 C-98.79287109 36.16556641 -98.79287109 36.16556641 -99 37 C-99.66 37 -100.32 37 -101 37 C-101.19335938 37.58007812 -101.38671875 38.16015625 -101.5859375 38.7578125 C-101.84632812 39.53898437 -102.10671875 40.32015625 -102.375 41.125 C-102.64828125 41.95515625 -102.9215625 42.7853125 -103.203125 43.640625 C-103.79788436 45.40157919 -104.44769753 47.14411591 -105.125 48.875 C-106.42396758 53.51416994 -106.67586185 58.20616733 -107 63 C-108.32 63 -109.64 63 -111 63 C-111.29991702 54.75228188 -109.83741324 47.60248003 -106.765625 39.953125 C-106.02506368 38.06393795 -105.41593671 36.12484945 -104.8125 34.1875 C-102.68348945 28.45729076 -98.72159961 23.77879106 -95 19 C-94.29746094 18.06542969 -93.59492187 17.13085938 -92.87109375 16.16796875 C-92.25363281 15.45253906 -91.63617188 14.73710938 -91 14 C-90.34 14 -89.68 14 -89 14 C-88.67 13.01 -88.34 12.02 -88 11 C-86.14246693 9.42736464 -84.21418832 7.93721097 -82.25 6.5 C-81.20328125 5.7265625 -80.1565625 4.953125 -79.078125 4.15625 C-74.29159142 0.80324678 -70.8686012 -1.31760451 -65 -2 C-65 -2.66 -65 -3.32 -65 -4 C-41.9656722 -10.55136706 -22.03648968 -10.02718578 0 0 Z " fill="#B58C33" transform="translate(165,62)"/>
<path d="M0 0 C4.95 0 9.9 0 15 0 C15 7.92 15 15.84 15 24 C17.97 24 20.94 24 24 24 C24 16.08 24 8.16 24 0 C28.95 0 33.9 0 39 0 C39.495 0.99 39.495 0.99 40 2 C35.05 1.67 30.1 1.34 25 1 C25 8.26 25 15.52 25 23 C39.52 23 54.04 23 69 23 C69 15.74 69 8.48 69 1 C64.05 1.33 59.1 1.66 54 2 C54.33 1.34 54.66 0.68 55 0 C59.95 0 64.9 0 70 0 C70 7.92 70 15.84 70 24 C72.97 24 75.94 24 79 24 C79 16.08 79 8.16 79 0 C83.62 0 88.24 0 93 0 C93 0.33 93 0.66 93 1 C88.71 1 84.42 1 80 1 C80 8.26 80 15.52 80 23 C91.88 23 103.76 23 116 23 C114.60547449 11.9972521 114.60547449 11.9972521 112 6 C112.375 3.6875 112.375 3.6875 113 2 C116.26682231 9.53994257 117.57184845 15.78762084 117 24 C117.99 24 118.98 24 120 24 C119.67 19.71 119.34 15.42 119 11 C121.02350324 14.03525486 121.32124018 15.19426202 121.625 18.6875 C121.73714844 19.89986328 121.73714844 19.89986328 121.8515625 21.13671875 C121.90054688 21.75160156 121.94953125 22.36648437 122 23 C123.32 23.33 124.64 23.66 126 24 C122.71560682 25.09479773 120.30255176 25.12855153 116.84422302 25.13371277 C115.55562378 25.13797775 114.26702454 25.14224274 112.93937683 25.14663696 C111.50833127 25.14628744 110.07728573 25.14582591 108.64624023 25.14526367 C107.14167192 25.14825524 105.63710437 25.15165776 104.13253784 25.15544128 C100.04386453 25.16428374 95.95521213 25.16661944 91.86653018 25.16725707 C88.45669554 25.16820577 85.0468658 25.17188345 81.63703305 25.17542917 C73.59631704 25.18357395 65.55561223 25.1860133 57.51489258 25.18530273 C49.20957033 25.18470128 40.9043129 25.19526642 32.59900707 25.2110464 C25.4754043 25.22410077 18.35182277 25.22948755 11.22820812 25.22884732 C6.97036242 25.2285918 2.71257435 25.23147296 -1.54525948 25.24202538 C-5.54662406 25.25167157 -9.54787547 25.25180964 -13.54924393 25.24450874 C-15.02067288 25.24345869 -16.49210875 25.24585056 -17.96352577 25.2518692 C-19.966072 25.25953226 -21.96865643 25.25377091 -23.97120667 25.24723816 C-25.09374124 25.24778293 -26.21627581 25.24832769 -27.37282658 25.24888897 C-30 25 -30 25 -32 23 C-30.68 23 -29.36 23 -28 23 C-28 21.35 -28 19.7 -28 18 C-27.67 18 -27.34 18 -27 18 C-27 19.98 -27 21.96 -27 24 C-25.68 24 -24.36 24 -23 24 C-23.02320313 23.22914062 -23.04640625 22.45828125 -23.0703125 21.6640625 C-23.08835937 20.66117188 -23.10640625 19.65828125 -23.125 18.625 C-23.14820313 17.62726563 -23.17140625 16.62953125 -23.1953125 15.6015625 C-23 13 -23 13 -21 11 C-21.33 14.96 -21.66 18.92 -22 23 C-10.12 23 1.76 23 14 23 C14 15.74 14 8.48 14 1 C9.05 1.33 4.1 1.66 -1 2 C-0.67 1.34 -0.34 0.68 0 0 Z " fill="#574929" transform="translate(81,101)"/>
<path d="M0 0 C17.16 0 34.32 0 52 0 C52 3.63 52 7.26 52 11 C51.34 9.68 50.68 8.36 50 7 C49.01 6.67 48.02 6.34 47 6 C47 5.34 47 4.68 47 4 C41.72 3.67 36.44 3.34 31 3 C31 10.92 31 18.84 31 27 C28.03 27 25.06 27 22 27 C22 19.08 22 11.16 22 3 C19.586875 3.0825 17.17375 3.165 14.6875 3.25 C13.93170654 3.26579102 13.17591309 3.28158203 12.3972168 3.29785156 C9.21257589 3.4599198 7.42462831 3.58929393 5.09375 5.84375 C3.75201032 8.48889395 2.83950759 11.15858969 2 14 C1.34 14 0.68 14 0 14 C0 9.38 0 4.76 0 0 Z " fill="#E8CC65" transform="translate(129,98)"/>
<path d="M0 0 C8.89571835 1.8093698 19.37453749 4.46899419 26 11 C26 11.66 26 12.32 26 13 C26.56203125 13.2475 27.1240625 13.495 27.703125 13.75 C42.3078034 21.6981243 50.53915422 36.61888998 55.16796875 51.8515625 C56.41120804 56.55602668 57.13624693 61.00770268 57.0625 65.875 C57.05347656 66.65617187 57.04445313 67.43734375 57.03515625 68.2421875 C57.02355469 68.82226562 57.01195312 69.40234375 57 70 C56.01 70 55.02 70 54 70 C53.98582031 69.35675781 53.97164063 68.71351562 53.95703125 68.05078125 C53.58209369 60.94723454 51.80638769 55.19878768 49.05859375 48.65234375 C48 46 48 46 48 44 C47.34 44 46.68 44 46 44 C44.50178941 40.62902617 44 38.79557881 44 35 C43.13375 34.7215625 43.13375 34.7215625 42.25 34.4375 C39.53322355 32.70178171 38.73195586 30.71640166 37.24609375 27.9296875 C33.03484405 21.4081911 25.48634046 16.99567051 19 13 C18.19046875 12.48308594 17.3809375 11.96617188 16.546875 11.43359375 C2.99267536 3.33759726 -11.57861761 2.33524744 -27 2 C-19.99437086 -2.67041943 -8.09052858 -0.85398016 0 0 Z " fill="#C29C3F" transform="translate(144,55)"/>
<path d="M0 0 C3.85125547 1.56903 6.11018875 4.05985822 9 7 C17.01854389 15.02568078 17.01854389 15.02568078 27 20 C27 20.66 27 21.32 27 22 C27.886875 22.12375 28.77375 22.2475 29.6875 22.375 C33 23 33 23 35.3359375 23.96972656 C44.62110639 27.56058183 55.19021844 27.31561727 65 27.25 C66.18722656 27.25773437 67.37445313 27.26546875 68.59765625 27.2734375 C69.74105469 27.27085937 70.88445312 27.26828125 72.0625 27.265625 C73.59583984 27.26224121 73.59583984 27.26224121 75.16015625 27.25878906 C78.13219752 26.98795311 80.2707201 26.15867827 83 25 C83.99 25 84.98 25 86 25 C86 25.66 86 26.32 86 27 C80.55464391 30.38495108 75.32278971 30.67373505 69 31 C69 31.66 69 32.32 69 33 C56.96208372 33.44388856 46.27567216 33.72118072 35 29 C34.19691406 28.67644531 33.39382812 28.35289062 32.56640625 28.01953125 C30.34236604 27.07518142 28.17476703 26.05230663 26 25 C24.76636719 24.44699219 24.76636719 24.44699219 23.5078125 23.8828125 C13.54471575 19.24951827 6.07142248 12.10713372 0 3 C0 2.01 0 1.02 0 0 Z " fill="#6E6763" transform="translate(69,170)"/>
<path d="M0 0 C1.20970459 0.00523682 2.41940918 0.01047363 3.66577148 0.01586914 C4.97094727 0.0190918 6.27612305 0.02231445 7.62084961 0.02563477 C9.00952213 0.03399138 10.39819401 0.04245634 11.78686523 0.05102539 C13.17944179 0.05603873 14.57202005 0.06060193 15.96459961 0.06469727 C19.38456394 0.07653105 22.80444367 0.09301659 26.22436523 0.11352539 C26.22436523 3.74352539 26.22436523 7.37352539 26.22436523 11.11352539 C25.89436523 9.79352539 25.56436523 8.47352539 25.22436523 7.11352539 C24.56436523 7.11352539 23.90436523 7.11352539 23.22436523 7.11352539 C23.22436523 6.45352539 23.22436523 5.79352539 23.22436523 5.11352539 C19.66191863 3.92604319 16.2511788 3.76285332 12.53686523 3.55102539 C10.12374023 3.40665039 7.71061523 3.26227539 5.22436523 3.11352539 C5.22436523 11.03352539 5.22436523 18.95352539 5.22436523 27.11352539 C2.25436523 27.11352539 -0.71563477 27.11352539 -3.77563477 27.11352539 C-3.80450013 22.8010393 -3.82238731 18.48857777 -3.83813477 14.17602539 C-3.84651367 12.94432617 -3.85489258 11.71262695 -3.86352539 10.44360352 C-3.86674805 9.2737793 -3.8699707 8.10395508 -3.87329102 6.89868164 C-3.87852783 5.81466064 -3.88376465 4.73063965 -3.88916016 3.61376953 C-3.72876814 0.08135097 -3.56068874 0.14563464 0 0 Z " fill="#DBBB55" transform="translate(99.775634765625,97.886474609375)"/>
<path d="M0 0 C2.97 0 5.94 0 9 0 C9.01981934 0.68626465 9.03963867 1.3725293 9.06005859 2.07958984 C9.15510945 5.17845779 9.26486847 8.27663294 9.375 11.375 C9.4059375 12.45523438 9.436875 13.53546875 9.46875 14.6484375 C9.50742188 15.6796875 9.54609375 16.7109375 9.5859375 17.7734375 C9.63306885 19.20308838 9.63306885 19.20308838 9.68115234 20.66162109 C9.78555796 23.18895176 9.78555796 23.18895176 12 25 C14.57061311 25.64767793 14.57061311 25.64767793 17 26 C17 26.66 17 27.32 17 28 C8.75 28 0.5 28 -8 28 C-8 27.34 -8 26.68 -8 26 C-5.69 25.01 -3.38 24.02 -1 23 C-0.67 15.41 -0.34 7.82 0 0 Z " fill="#ACA9A4" transform="translate(151,131)"/>
<path d="M0 0 C2.97 0 5.94 0 9 0 C9.01981934 0.68626465 9.03963867 1.3725293 9.06005859 2.07958984 C9.15510945 5.17845779 9.26486847 8.27663294 9.375 11.375 C9.4059375 12.45523438 9.436875 13.53546875 9.46875 14.6484375 C9.50742188 15.6796875 9.54609375 16.7109375 9.5859375 17.7734375 C9.63306885 19.20308838 9.63306885 19.20308838 9.68115234 20.66162109 C9.78555796 23.18895176 9.78555796 23.18895176 12 25 C14.57061311 25.64767793 14.57061311 25.64767793 17 26 C17 26.66 17 27.32 17 28 C8.75 28 0.5 28 -8 28 C-8 27.34 -8 26.68 -8 26 C-5.69 25.01 -3.38 24.02 -1 23 C-0.67 15.41 -0.34 7.82 0 0 Z " fill="#A49F9B" transform="translate(96,131)"/>
<path d="M0 0 C1.57998197 4.73994592 -0.37329936 8.17281118 -2.0625 12.75 C-2.42472656 13.73484375 -2.78695312 14.7196875 -3.16015625 15.734375 C-3.43730469 16.48203125 -3.71445313 17.2296875 -4 18 C-4.66 18 -5.32 18 -6 18 C-6.19335938 18.58007812 -6.38671875 19.16015625 -6.5859375 19.7578125 C-6.84632812 20.53898437 -7.10671875 21.32015625 -7.375 22.125 C-7.64828125 22.95515625 -7.9215625 23.7853125 -8.203125 24.640625 C-8.79788436 26.40157919 -9.44769753 28.14411591 -10.125 29.875 C-11.42396758 34.51416994 -11.67586185 39.20616733 -12 44 C-13.32 44 -14.64 44 -16 44 C-16.29991702 35.75228188 -14.83741324 28.60248003 -11.765625 20.953125 C-11.02506368 19.06393795 -10.41593671 17.12484945 -9.8125 15.1875 C-7.70874958 9.45935347 -3.69938188 4.78019892 0 0 Z " fill="#C09333" transform="translate(70,81)"/>
<path d="M0 0 C0.66 0 1.32 0 2 0 C2.15033691 0.57331055 2.30067383 1.14662109 2.45556641 1.73730469 C7.31559301 20.44043479 7.31559301 20.44043479 17 37 C16.67 37.66 16.34 38.32 16 39 C15.34 38.67 14.68 38.34 14 38 C13.67 38.66 13.34 39.32 13 40 C9 34.25 9 34.25 9 32 C8.01 31.67 7.02 31.34 6 31 C4.98021135 28.69515975 4.14646506 26.51082713 3.375 24.125 C3.1584375 23.48691406 2.941875 22.84882813 2.71875 22.19140625 C2.13475169 20.46464582 1.56664054 18.73253401 1 17 C0.67 16.01 0.34 15.02 0 14 C-0.06970052 11.60509014 -0.08448003 9.20832309 -0.0625 6.8125 C-0.05347656 5.54019531 -0.04445312 4.26789063 -0.03515625 2.95703125 C-0.02355469 1.98121094 -0.01195312 1.00539062 0 0 Z " fill="#665E5B" transform="translate(55,132)"/>
<path d="M0 0 C10.42694952 9.50692456 15.19633754 22.16552515 17 36 C17.0620775 37.62394748 17.08712041 39.25005297 17.0625 40.875 C17.05347656 41.65617187 17.04445312 42.43734375 17.03515625 43.2421875 C17.02355469 43.82226562 17.01195312 44.40234375 17 45 C16.01 45 15.02 45 14 45 C13.98582031 44.35675781 13.97164062 43.71351562 13.95703125 43.05078125 C13.58209369 35.94723454 11.80638769 30.19878768 9.05859375 23.65234375 C8 21 8 21 8 19 C7.34 19 6.68 19 6 19 C4.50178941 15.62902617 4 13.79557881 4 10 C2.68 9.34 1.36 8.68 0 8 C0 5.33333333 0 2.66666667 0 0 Z " fill="#94722B" transform="translate(184,80)"/>
<path d="M0 0 C0 0.66 0 1.32 0 2 C-5.44535609 5.38495108 -10.67721029 5.67373505 -17 6 C-17 6.66 -17 7.32 -17 8 C-20.37492629 8.05845196 -23.74972087 8.09374742 -27.125 8.125 C-28.55199219 8.15013672 -28.55199219 8.15013672 -30.0078125 8.17578125 C-35.08583255 8.21104528 -39.24487525 8.03333617 -44 6 C-44 5.34 -44 4.68 -44 4 C-46.97 3.505 -46.97 3.505 -50 3 C-50 2.67 -50 2.34 -50 2 C-43.56071581 1.87373953 -43.56071581 1.87373953 -40.796875 2.49609375 C-36.99500009 3.18106842 -33.2925094 3.14841998 -29.4375 3.125 C-28.64190674 3.12161621 -27.84631348 3.11823242 -27.02661133 3.11474609 C-17.84831376 3.03502348 -8.66906319 0 0 0 Z " fill="#B1B0AC" transform="translate(155,195)"/>
<path d="M0 0 C7.26 0 14.52 0 22 0 C22 3.63 22 7.26 22 11 C21.34 9.68 20.68 8.36 20 7 C19.01 6.67 18.02 6.34 17 6 C17 5.34 17 4.68 17 4 C11.72 3.67 6.44 3.34 1 3 C1 10.92 1 18.84 1 27 C-1.97 27 -4.94 27 -8 27 C-8 19.08 -8 11.16 -8 3 C-7.67 3 -7.34 3 -7 3 C-7 10.59 -7 18.18 -7 26 C-4.69 26 -2.38 26 0 26 C0 17.42 0 8.84 0 0 Z " fill="#CCB259" transform="translate(159,98)"/>
<path d="M0 0 C0.495 1.485 0.495 1.485 1 3 C-5.17763816 9.87964249 -11.65264521 14.95003535 -20 19 C-20.66 19 -21.32 19 -22 19 C-22 19.66 -22 20.32 -22 21 C-23.65 21.33 -25.3 21.66 -27 22 C-27 21.34 -27 20.68 -27 20 C-28.155 20.495 -29.31 20.99 -30.5 21.5 C-34.85282892 23.15562957 -38.37522033 23.24775605 -43 23 C-43 22.67 -43 22.34 -43 22 C-41.741875 21.773125 -40.48375 21.54625 -39.1875 21.3125 C-33.3984118 20.03415245 -28.30551939 17.5864407 -23 15 C-21.948125 14.525625 -20.89625 14.05125 -19.8125 13.5625 C-16.58133824 11.76741014 -13.80287883 9.60837463 -10.88671875 7.34765625 C-8.71173453 5.79409609 -6.48134403 4.96496712 -4 4 C-1.72808584 1.97959252 -1.72808584 1.97959252 0 0 Z " fill="#7F7A75" transform="translate(182,175)"/>
<path d="M0 0 C18.48 0 36.96 0 56 0 C56 5.28 56 10.56 56 16 C55.01 16 54.02 16 53 16 C51.57055055 13.64561267 50.91338739 12.51967567 51.375 9.75 C51.58125 9.1725 51.7875 8.595 52 8 C52.495 8.99 52.495 8.99 53 10 C53.33 7.03 53.66 4.06 54 1 C36.84 1 19.68 1 2 1 C2 5.62 2 10.24 2 15 C2.66 15 3.32 15 4 15 C4.33 13.02 4.66 11.04 5 9 C5.93423645 12.01031744 6.04449911 12.86650268 5 16 C2.69 16 0.38 16 -2 16 C-1.34 15.67 -0.68 15.34 0 15 C0 10.05 0 5.1 0 0 Z " fill="#86753C" transform="translate(127,97)"/>
<path d="M0 0 C1.62748169 0.00241699 1.62748169 0.00241699 3.2878418 0.00488281 C10.7555096 0.11927826 18.00782089 0.37553478 24.5625 4.375 C26.35546875 6.515625 26.35546875 6.515625 27.5625 8.375 C23.00953814 8.71647214 19.91698142 7.87982095 15.79272461 6.20532227 C8.87964066 3.63155122 1.81639611 3.0224492 -5.5 2.75 C-6.7984082 2.69199219 -6.7984082 2.69199219 -8.12304688 2.6328125 C-10.22756359 2.53979519 -12.3325009 2.45637331 -14.4375 2.375 C-9.88051602 -0.66298932 -5.36563365 -0.00806923 0 0 Z " fill="#E6D775" transform="translate(131.4375,54.625)"/>
<path d="M0 0 C-5.94 0.33 -11.88 0.66 -18 1 C-15.545625 1.12375 -13.09125 1.2475 -10.5625 1.375 C-4.51594084 1.7167487 1.12977297 2.42761776 7 4 C3.72533641 4.98506535 0.79818338 5.10280942 -2.61328125 5.0625 C-3.69673828 5.05476563 -4.78019531 5.04703125 -5.89648438 5.0390625 C-8.16211091 5.01315482 -10.42773594 4.98711455 -12.69335938 4.9609375 C-18.24754393 4.92142937 -23.53206129 4.99004884 -29 6 C-28.01 5.34 -27.02 4.68 -26 4 C-26.33 3.34 -26.66 2.68 -27 2 C-26 0 -26 0 -22.8125 -1.125 C-15.38857043 -2.8226681 -6.85547632 -3.42773816 0 0 Z " fill="#8F854C" transform="translate(138,55)"/>
<path d="M0 0 C3.55090685 0.61506779 6.66343761 1.58965086 10 2.9375 C20.91340712 6.96437215 32.48768499 7.39492674 44 8 C44 8.33 44 8.66 44 9 C24.99544419 9.18451025 24.99544419 9.18451025 17 8 C17.99 8.66 18.98 9.32 20 10 C12.55031652 9.36598438 6.60368416 6.32420218 0 3 C0 2.01 0 1.02 0 0 Z " fill="#868381" transform="translate(91,190)"/>
<path d="M0 0 C5.18187758 4.10976498 6.27162111 9.82161937 7.6875 16 C8.10503171 20.00830443 8.08051507 23.97424651 8 28 C7.01 28 6.02 28 5 28 C4.96132812 27.00033203 4.96132812 27.00033203 4.921875 25.98046875 C4.5281883 19.5830599 3.21410841 14.40436884 0.85546875 8.4609375 C-0.15628084 5.55042497 -0.33074856 3.05942419 0 0 Z " fill="#C09333" transform="translate(193,97)"/>
<path d="M0 0 C17.49 0 34.98 0 53 0 C53 4.95 53 9.9 53 15 C52.34 15 51.68 15 51 15 C49.68 12.36 48.36 9.72 47 7 C47.66 6.67 48.32 6.34 49 6 C49 6.66 49 7.32 49 8 C49.66 8 50.32 8 51 8 C51.33 5.69 51.66 3.38 52 1 C34.84 1 17.68 1 0 1 C0 0.67 0 0.34 0 0 Z " fill="#95803E" transform="translate(74,97)"/>
<path d="M0 0 C2.97 0 5.94 0 9 0 C9 0.33 9 0.66 9 1 C6.36 1 3.72 1 1 1 C1.01047363 1.68102783 1.02094727 2.36205566 1.03173828 3.0637207 C1.07328878 6.14660966 1.09932311 9.22943971 1.125 12.3125 C1.14175781 13.38435547 1.15851563 14.45621094 1.17578125 15.56054688 C1.18222656 16.58857422 1.18867187 17.61660156 1.1953125 18.67578125 C1.20578613 19.62364502 1.21625977 20.57150879 1.22705078 21.5480957 C1 24 1 24 -1 27 C4.94 26.67 10.88 26.34 17 26 C17 26.66 17 27.32 17 28 C8.75 28 0.5 28 -8 28 C-8 27.34 -8 26.68 -8 26 C-5.69 25.01 -3.38 24.02 -1 23 C-0.67 15.41 -0.34 7.82 0 0 Z " fill="#84807C" transform="translate(96,131)"/>
<path d="M0 0 C1.57998197 4.73994592 -0.37329936 8.17281118 -2.0625 12.75 C-2.42472656 13.73484375 -2.78695312 14.7196875 -3.16015625 15.734375 C-3.43730469 16.48203125 -3.71445313 17.2296875 -4 18 C-4.66 18 -5.32 18 -6 18 C-6.33 17.01 -6.66 16.02 -7 15 C-7.33 15.66 -7.66 16.32 -8 17 C-8.66 17 -9.32 17 -10 17 C-8.68018255 12.31812124 -6.80204328 8.99625079 -3.875 5.125 C-3.15054688 4.15820312 -2.42609375 3.19140625 -1.6796875 2.1953125 C-1.12539062 1.47085938 -0.57109375 0.74640625 0 0 Z " fill="#906F2A" transform="translate(70,81)"/>
<path d="M0 0 C2.76140736 2.76140736 4.01614651 5.99002559 5.68359375 9.4921875 C6.9347106 11.87562079 8.32460473 13.89965024 10 16 C9.67 16.66 9.34 17.32 9 18 C8.34 17.67 7.68 17.34 7 17 C6.67 17.66 6.34 18.32 6 19 C2 13.25 2 13.25 2 11 C1.01 10.67 0.02 10.34 -1 10 C-1.33 8.35 -1.66 6.7 -2 5 C-1.01 5.495 -1.01 5.495 0 6 C0 4.02 0 2.04 0 0 Z " fill="#645D59" transform="translate(62,153)"/>
<path d="M0 0 C3.3 0 6.6 0 10 0 C9 3 9 3 6.5625 5.3125 C3.83508949 8.17295492 2.96747167 10.21806528 2 14 C1.34 14 0.68 14 0 14 C0 9.38 0 4.76 0 0 Z " fill="#EAE17F" transform="translate(129,98)"/>
<path d="M0 0 C2.31 0 4.62 0 7 0 C7 3.63 7 7.26 7 11 C6.34 9.68 5.68 8.36 5 7 C4.01 6.67 3.02 6.34 2 6 C2 5.34 2 4.68 2 4 C-2.95 3.67 -7.9 3.34 -13 3 C-13 2.67 -13 2.34 -13 2 C-8.71 2 -4.42 2 0 2 C0 1.34 0 0.68 0 0 Z " fill="#C9A03F" transform="translate(174,98)"/>
<path d="M0 0 C9.59453303 2.70615034 9.59453303 2.70615034 13 7 C11.68 6.67 10.36 6.34 9 6 C9.99 7.65 10.98 9.3 12 11 C11.13955078 10.566875 11.13955078 10.566875 10.26171875 10.125 C8.81221882 9.40400522 7.35688641 8.69455087 5.89453125 8 C5.20746094 7.67 4.52039063 7.34 3.8125 7 C3.11769531 6.67 2.42289063 6.34 1.70703125 6 C0 5 0 5 -1 3 C-0.34 2.67 0.32 2.34 1 2 C0.67 1.34 0.34 0.68 0 0 Z " fill="#B99F4C" transform="translate(157,60)"/>
<path d="M0 0 C-0.33 0.99 -0.66 1.98 -1 3 C-3.0625 3.6875 -3.0625 3.6875 -5 4 C-5 4.66 -5 5.32 -5 6 C-6.65 6.33 -8.3 6.66 -10 7 C-10 6.34 -10 5.68 -10 5 C-11.7325 5.7425 -11.7325 5.7425 -13.5 6.5 C-17.85282892 8.15562957 -21.37522033 8.24775605 -26 8 C-26 7.67 -26 7.34 -26 7 C-25.14728516 6.83564453 -25.14728516 6.83564453 -24.27734375 6.66796875 C-19.18371706 5.62203205 -14.78123543 4.08635728 -10 2 C-3.27607362 0 -3.27607362 0 0 0 Z " fill="#94918E" transform="translate(165,190)"/>
<path d="M0 0 C0.66 0.66 1.32 1.32 2 2 C-3.10334017 3.905247 -7.46342706 5.42589023 -13 5 C-12.67 3.68 -12.34 2.36 -12 1 C-3.68674699 -1.35542169 -3.68674699 -1.35542169 0 0 Z " fill="#BFA651" transform="translate(112,57)"/>
<path d="M0 0 C0.33 0 0.66 0 1 0 C1.8320582 5.72040011 2.12036664 11.22240116 2 17 C0.68 17 -0.64 17 -2 17 C-2.21824777 10.9981863 -1.5056904 5.80766296 0 0 Z " fill="#AC842F" transform="translate(56,108)"/>
<path d="M0 0 C2.64 0 5.28 0 8 0 C8 3.63 8 7.26 8 11 C7.67 9.68 7.34 8.36 7 7 C6.34 7 5.68 7 5 7 C5 6.34 5 5.68 5 5 C3.02 4.34 1.04 3.68 -1 3 C-0.67 2.01 -0.34 1.02 0 0 Z " fill="#F4E47C" transform="translate(118,98)"/>
<path d="M0 0 C6.57142857 5 6.57142857 5 8 10 C7.34 10.66 6.68 11.32 6 12 C5.401875 11.21625 4.80375 10.4325 4.1875 9.625 C2.08914751 6.85425677 2.08914751 6.85425677 -1 5 C-0.67 3.35 -0.34 1.7 0 0 Z " fill="#B78F35" transform="translate(178,74)"/>
<path d="M0 0 C-3.69172595 3.53790403 -7.09390595 3.59115883 -12 4 C-11.875 2.125 -11.875 2.125 -11 0 C-6.66392558 -2.16803721 -4.27491845 -2.26319212 0 0 Z " fill="#B69642" transform="translate(103,62)"/>
<path d="M0 0 C-0.5590888 3.24271506 -1.4132178 4.93057424 -4 7 C-4.66 7 -5.32 7 -6 7 C-7.37310707 8.29233607 -8.71034824 9.62437146 -10 11 C-10.66 10.67 -11.32 10.34 -12 10 C-10.7121669 8.51749445 -9.41960936 7.03909182 -8.125 5.5625 C-7.40570313 4.73878906 -6.68640625 3.91507813 -5.9453125 3.06640625 C-3.88046355 0.87302253 -3.01467852 0 0 0 Z " fill="#6F6864" transform="translate(187,170)"/>
<path d="M0 0 C-1.4615836 3.36997254 -3.3380888 5.60745127 -5.9375 8.1875 C-6.97197266 9.22970703 -6.97197266 9.22970703 -8.02734375 10.29296875 C-10 12 -10 12 -13 13 C-11.46781315 9.36938333 -9.2816856 7.0136227 -6.5 4.25 C-5.7059375 3.45078125 -4.911875 2.6515625 -4.09375 1.828125 C-2 0 -2 0 0 0 Z " fill="#41331C" transform="translate(85,73)"/>
<path d="M0 0 C0.66 0 1.32 0 2 0 C2.31985731 6.71700347 1.4793824 11.75726932 -1 18 C-1.33 18 -1.66 18 -2 18 C-1.85805236 15.93722893 -1.71127784 13.87478969 -1.5625 11.8125 C-1.48128906 10.66394531 -1.40007812 9.51539063 -1.31640625 8.33203125 C-1.04596188 5.48401829 -0.62478253 2.78789518 0 0 Z " fill="#7B736D" transform="translate(199,132)"/>
<path d="M0 0 C4.95 0 9.9 0 15 0 C15 0.66 15 1.32 15 2 C14.08476562 2.06058594 13.16953125 2.12117188 12.2265625 2.18359375 C11.03804687 2.26738281 9.84953125 2.35117188 8.625 2.4375 C7.44164062 2.51871094 6.25828125 2.59992188 5.0390625 2.68359375 C2.08481099 2.81084936 2.08481099 2.81084936 0 4 C0 2.68 0 1.36 0 0 Z " fill="#DCB851" transform="translate(159,98)"/>
<path d="M0 0 C3 1.25 3 1.25 5 4.25 C-0.42039575 4.65652968 -4.07015675 3.28993514 -9 1.25 C-8.38125 1.105625 -7.7625 0.96125 -7.125 0.8125 C-2.08571429 -0.52142857 -2.08571429 -0.52142857 0 0 Z " fill="#D4BC5E" transform="translate(154,58.75)"/>
<path d="M0 0 C0.66 0 1.32 0 2 0 C3.20568053 4.67201205 3.09382426 9.21496292 3 14 C0.19954377 10.85408067 -0.35261589 8.932936 -0.1875 4.75 C-0.16042969 3.85796875 -0.13335937 2.9659375 -0.10546875 2.046875 C-0.07066406 1.37140625 -0.03585938 0.6959375 0 0 Z " fill="#7A716C" transform="translate(55,132)"/>
<path d="M0 0 C3.8063457 0.67170806 7.35206816 1.72746564 11 3 C9.68 3.33 8.36 3.66 7 4 C7 4.66 7 5.32 7 6 C2.25 4.125 2.25 4.125 0 3 C0 2.01 0 1.02 0 0 Z " fill="#89847F" transform="translate(91,190)"/>
<path d="M0 0 C0.33 0 0.66 0 1 0 C1 4.62 1 9.24 1 14 C0.34 14 -0.32 14 -1 14 C-2.32 11.36 -3.64 8.72 -5 6 C-4.34 5.67 -3.68 5.34 -3 5 C-3 5.66 -3 6.32 -3 7 C-2.34 7 -1.68 7 -1 7 C-0.67 4.69 -0.34 2.38 0 0 Z " fill="#B8AE63" transform="translate(126,98)"/>
<path d="M0 0 C4.43090471 1.20842856 6.98112756 2.51668565 10 6 C8.68 5.67 7.36 5.34 6 5 C6.99 6.65 7.98 8.3 9 10 C7.68 9.34 6.36 8.68 5 8 C5 6.68 5 5.36 5 4 C4.34 4 3.68 4 3 4 C3 3.34 3 2.68 3 2 C2.01 1.67 1.02 1.34 0 1 C0 0.67 0 0.34 0 0 Z " fill="#867137" transform="translate(160,61)"/>
<path d="M0 0 C2.96404505 2.80804268 5.44499019 5.18315774 7 9 C5.35 8.01 3.7 7.02 2 6 C2.33 7.32 2.66 8.64 3 10 C1.68 9.01 0.36 8.02 -1 7 C-0.67 6.34 -0.34 5.68 0 5 C0 4.01 0 3.02 0 2 C0 1.34 0 0.68 0 0 Z " fill="#886929" transform="translate(184,80)"/>
<path d="M0 0 C-0.47202486 4.24822374 -2.96655518 6.19989709 -6 9 C-7 6 -7 6 -6.25 3.9375 C-4.6169461 1.40626646 -3.11229879 0 0 0 Z " fill="#C29533" transform="translate(77,77)"/>
<path d="M0 0 C4.82360189 -0.19294408 8.49646738 0.24252386 13 2 C13 2.66 13 3.32 13 4 C11.39431334 3.71682074 9.79047953 3.42312209 8.1875 3.125 C7.29417969 2.96257812 6.40085937 2.80015625 5.48046875 2.6328125 C3 2 3 2 0 0 Z " fill="#BCB9B4" transform="translate(105,197)"/>
<path d="M0 0 C0.33 0 0.66 0 1 0 C1 2.31 1 4.62 1 7 C1.66 7 2.32 7 3 7 C2.67 9.31 2.34 11.62 2 14 C1.34 14 0.68 14 0 14 C0 9.38 0 4.76 0 0 Z " fill="#B78C31" transform="translate(74,98)"/>
<path d="M0 0 C0 0.66 0 1.32 0 2 C1.32 2.33 2.64 2.66 4 3 C2.68 3.99 1.36 4.98 0 6 C-0.66 5.67 -1.32 5.34 -2 5 C-1.67 4.01 -1.34 3.02 -1 2 C-2.32 2.99 -3.64 3.98 -5 5 C-5.66 4.67 -6.32 4.34 -7 4 C-2.25 0 -2.25 0 0 0 Z " fill="#8D7231" transform="translate(91,64)"/>
<path d="M0 0 C2.02045442 0.60183749 4.02111039 1.27306096 6 2 C6.33 2.66 6.66 3.32 7 4 C6.34 4 5.68 4 5 4 C5 4.66 5 5.32 5 6 C4.34 6 3.68 6 3 6 C0 2.53846154 0 2.53846154 0 0 Z " fill="#C9A648" transform="translate(166,66)"/>
<path d="M0 0 C1.9375 0.75 1.9375 0.75 4 2 C4.75 4.125 4.75 4.125 5 6 C4.01 6 3.02 6 2 6 C1.34 4.02 0.68 2.04 0 0 Z " fill="#C69734" transform="translate(186,86)"/>
<path d="M0 0 C1 3 1 3 -0.3125 5.6875 C-0.869375 6.450625 -1.42625 7.21375 -2 8 C-2.66 8 -3.32 8 -4 8 C-2.25 2.25 -2.25 2.25 0 0 Z " fill="#C99A35" transform="translate(69,85)"/>
<path d="M0 0 C1.9375 0.8125 1.9375 0.8125 4 2 C4.33 2.99 4.66 3.98 5 5 C4.01 5.33 3.02 5.66 2 6 C0 3 0 3 0 0 Z " fill="#776E6A" transform="translate(69,170)"/>
<path d="M0 0 C0.33 0 0.66 0 1 0 C1.125 2.875 1.125 2.875 1 6 C0.34 6.66 -0.32 7.32 -1 8 C-1 7.01 -1 6.02 -1 5 C-1.66 5 -2.32 5 -3 5 C-3 4.34 -3 3.68 -3 3 C-2.34 3 -1.68 3 -1 3 C-0.67 2.01 -0.34 1.02 0 0 Z " fill="#B68B31" transform="translate(63,95)"/>
</svg>
